STARTFONT 2.3
FONT -FontForge-Fredoka One-Book-R-Normal--16-160-72-72-P-92-ISO10646-1
SIZE 16 72 72  2
FONTBOUNDINGBOX 21 20 -2 -4
COMMENT "Generated by fontforge, http://fontforge.sourceforge.net"
COMMENT "Copyright (c) 2011 Milena B Brandao (milenabbrandao@gmail.com), with Reserved Font Name "Fredoka""
STARTPROPERTIES 40
FOUNDRY "FontForge"
FAMILY_NAME "Fredoka One"
WEIGHT_NAME "Book"
SLANT "R"
SETWIDTH_NAME "Normal"
ADD_STYLE_NAME ""
PIXEL_SIZE 16
POINT_SIZE 160
RESOLUTION_X 72
RESOLUTION_Y 72
SPACING "P"
AVERAGE_WIDTH 92
CHARSET_REGISTRY "ISO10646"
CHARSET_ENCODING "1"
FONTNAME_REGISTRY ""
CHARSET_COLLECTIONS "ISO10646-1"
BITS_PER_PIXEL 2
FONT_NAME "FredokaOne-Regular"
FACE_NAME "Fredoka One"
COPYRIGHT "Copyright (c) 2011 Milena B Brandao (milenabbrandao@gmail.com), with Reserved Font Name "Fredoka""
FONT_VERSION "1.001"
FONT_ASCENT 13
FONT_DESCENT 3
UNDERLINE_POSITION -2
UNDERLINE_THICKNESS 1
X_HEIGHT 8
CAP_HEIGHT 11
RAW_ASCENT 800
RAW_DESCENT 200
NORM_SPACE 4
RELATIVE_WEIGHT 40
RELATIVE_SETWIDTH 50
SUPERSCRIPT_X 0
SUPERSCRIPT_Y 7
SUPERSCRIPT_SIZE 10
SUBSCRIPT_X 0
SUBSCRIPT_Y 2
SUBSCRIPT_SIZE 10
AVG_LOWERCASE_WIDTH 92
AVG_UPPERCASE_WIDTH 108
ENDPROPERTIES
CHARS 235
STARTCHAR space
ENCODING 32
SWIDTH 253 0
DWIDTH 4 0
BBX 1 1 0 0
BITMAP
00
ENDCHAR
STARTCHAR exclam
ENCODING 33
SWIDTH 267 0
DWIDTH 4 0
BBX 4 12 0 0
BITMAP
29
7E
7E
7E
7E
7E
7E
29
00
3D
7E
3D
ENDCHAR
STARTCHAR quotedbl
ENCODING 34
SWIDTH 429 0
DWIDTH 7 0
BBX 7 6 0 6
BITMAP
64A0
BCF4
BCF4
78F4
78B0
2460
ENDCHAR
STARTCHAR numbersign
ENCODING 35
SWIDTH 749 0
DWIDTH 12 0
BBX 12 12 0 0
BITMAP
019064
02E0F4
02E0F4
1BEAF9
3FFFFE
1BD6E4
07C2E0
6FEBF8
BFFFFC
1F97D0
0F47C0
0E0780
ENDCHAR
STARTCHAR dollar
ENCODING 36
SWIDTH 475 0
DWIDTH 8 0
BBX 7 15 0 -2
BITMAP
0100
0380
0780
2FF4
7EF4
7C10
7F90
1FF8
01BC
787C
7FFC
1FE0
0380
0380
0100
ENDCHAR
STARTCHAR percent
ENCODING 37
SWIDTH 838 0
DWIDTH 13 0
BBX 13 14 0 -1
BITMAP
00001000
0A803400
3FE0B000
79F1D000
74B2C000
3EE74000
1FDA0000
001D7E00
0029FF40
0076D380
00E2D380
01C1FF40
03807E00
01000000
ENDCHAR
STARTCHAR ampersand
ENCODING 38
SWIDTH 748 0
DWIDTH 12 0
BBX 12 13 0 0
BITMAP
005000
07FD00
0FFF40
1F5F40
1F6F40
0FFE00
0FF400
2FF078
7FF8F8
BDBFF4
BE7FF8
7FFFFE
1BF9BD
ENDCHAR
STARTCHAR quotesingle
ENCODING 39
SWIDTH 208 0
DWIDTH 3 0
BBX 3 6 0 6
BITMAP
64
BC
BC
78
78
24
ENDCHAR
STARTCHAR parenleft
ENCODING 40
SWIDTH 384 0
DWIDTH 6 0
BBX 6 17 0 -4
BITMAP
0050
07F0
0F90
2F00
3D00
3D00
7C00
7C00
7C00
7C00
7C00
7C00
3D00
2E00
1F90
07F0
0190
ENDCHAR
STARTCHAR parenright
ENCODING 41
SWIDTH 384 0
DWIDTH 6 0
BBX 6 17 0 -4
BITMAP
1000
BD00
6F40
0B80
07C0
03D0
03D0
02E0
02E0
02E0
02E0
03D0
07C0
0B80
6F40
BE00
6400
ENDCHAR
STARTCHAR asterisk
ENCODING 42
SWIDTH 503 0
DWIDTH 8 0
BBX 8 8 0 4
BITMAP
02C0
17D4
BFFE
BFFE
2FF8
2FF8
2EB8
0410
ENDCHAR
STARTCHAR plus
ENCODING 43
SWIDTH 527 0
DWIDTH 8 0
BBX 8 8 0 0
BITMAP
03D0
03D0
6BE9
BFFF
7FFE
03D0
03D0
0140
ENDCHAR
STARTCHAR comma
ENCODING 44
SWIDTH 238 0
DWIDTH 4 0
BBX 4 6 0 -3
BITMAP
7C
BD
7D
2C
74
50
ENDCHAR
STARTCHAR hyphen
ENCODING 45
SWIDTH 433 0
DWIDTH 7 0
BBX 7 3 0 2
BITMAP
6AA4
BFF4
6AA4
ENDCHAR
STARTCHAR period
ENCODING 46
SWIDTH 237 0
DWIDTH 4 0
BBX 4 3 0 0
BITMAP
7D
BD
7D
ENDCHAR
STARTCHAR slash
ENCODING 47
SWIDTH 526 0
DWIDTH 8 0
BBX 8 14 0 -1
BITMAP
0004
002F
003F
007D
00FC
01F4
03F0
07E0
0FC0
1F80
2F00
7E00
BC00
6800
ENDCHAR
STARTCHAR zero
ENCODING 48
SWIDTH 608 0
DWIDTH 10 0
BBX 10 13 0 -1
BITMAP
06F800
1FFF00
3FFF80
7E1FC0
7D0BD0
BD0BD0
BD0BD0
7D0BD0
7E0FC0
3FBF80
1FFF40
0BFD00
004000
ENDCHAR
STARTCHAR one
ENCODING 49
SWIDTH 407 0
DWIDTH 7 0
BBX 6 12 0 0
BITMAP
0190
07F0
2FF0
BFF0
BFF0
17F0
03F0
03F0
03F0
03F0
03F0
02E0
ENDCHAR
STARTCHAR two
ENCODING 50
SWIDTH 609 0
DWIDTH 10 0
BBX 10 12 0 0
BITMAP
06E800
1FFE00
3FFF80
7E1FC0
BD0FC0
681FC0
00BF40
07FE00
1FF400
7FFA90
BFFFD0
7FFFD0
ENDCHAR
STARTCHAR three
ENCODING 51
SWIDTH 608 0
DWIDTH 10 0
BBX 10 13 0 -1
BITMAP
06F800
1FFF40
3FFF80
3E0FC0
04AFC0
01FF40
01FF80
145FC0
BD0BD0
7FAFC0
2FFF80
0BFD00
004000
ENDCHAR
STARTCHAR four
ENCODING 52
SWIDTH 592 0
DWIDTH 9 0
BBX 9 12 0 0
BITMAP
0A0A40
1F4F80
2F4F80
3F0F80
7E0F80
7E0F80
BFFF80
BFFF80
6AAF80
000F80
000F80
000B80
ENDCHAR
STARTCHAR five
ENCODING 53
SWIDTH 530 0
DWIDTH 8 0
BBX 8 13 0 -1
BITMAP
1AA9
3FFE
3FFE
7E00
7F90
7FFC
BFFE
197F
143F
7EBF
BFFD
2FF4
0040
ENDCHAR
STARTCHAR six
ENCODING 54
SWIDTH 560 0
DWIDTH 9 0
BBX 9 13 0 -1
BITMAP
006A00
02FF40
0FFF00
2FD000
3F0000
7FF800
BFFE00
BFBF40
BD1F80
7E6F40
2FFF00
0BF800
004000
ENDCHAR
STARTCHAR seven
ENCODING 55
SWIDTH 561 0
DWIDTH 9 0
BBX 9 12 0 0
BITMAP
6AAA40
BFFF80
BFFF80
003F40
007E00
01FD00
02F800
07F000
0BD000
0FC000
0F8000
0F8000
ENDCHAR
STARTCHAR eight
ENCODING 56
SWIDTH 582 0
DWIDTH 9 0
BBX 9 13 0 -1
BITMAP
06F800
1FFE00
3FBF40
7E1F80
3FAF40
2FFF00
3FFF40
7E1F80
BD0FC0
7FAF80
2FFF40
0BF900
004000
ENDCHAR
STARTCHAR nine
ENCODING 57
SWIDTH 560 0
DWIDTH 9 0
BBX 9 12 0 0
BITMAP
06E400
2FFE00
7FBF00
BD1F40
7E6F80
3FFF80
1FFF40
017F00
00BE00
2FFD00
7FF400
3F8000
ENDCHAR
STARTCHAR colon
ENCODING 58
SWIDTH 238 0
DWIDTH 4 0
BBX 4 8 0 0
BITMAP
7D
BD
78
00
00
7C
BD
7D
ENDCHAR
STARTCHAR semicolon
ENCODING 59
SWIDTH 237 0
DWIDTH 4 0
BBX 4 11 0 -3
BITMAP
7D
BD
78
00
00
7D
BD
7D
2C
74
50
ENDCHAR
STARTCHAR less
ENCODING 60
SWIDTH 627 0
DWIDTH 10 0
BBX 10 11 0 0
BITMAP
0002D0
001FE0
01BFD0
0BFD00
7FE000
BF4000
7FE000
0BFD00
01BFD0
001FE0
0002D0
ENDCHAR
STARTCHAR equal
ENCODING 61
SWIDTH 478 0
DWIDTH 8 0
BBX 8 7 0 0
BITMAP
1554
BFFD
7FFC
0000
7FFC
BFFD
1554
ENDCHAR
STARTCHAR greater
ENCODING 62
SWIDTH 627 0
DWIDTH 10 0
BBX 10 11 0 0
BITMAP
780000
BF4000
6FE400
07FE00
00BFD0
001FE0
00BFD0
07FE00
6FE400
BF4000
780000
ENDCHAR
STARTCHAR question
ENCODING 63
SWIDTH 512 0
DWIDTH 8 0
BBX 8 12 0 0
BITMAP
1BE0
3FFC
BEBE
782E
007E
02FC
07E4
0280
0000
07D0
07D0
07D0
ENDCHAR
STARTCHAR at
ENCODING 64
SWIDTH 908 0
DWIDTH 15 0
BBX 14 13 0 -2
BITMAP
006A9000
02FFFD00
0FE56F80
2E1967D0
7C7FF1E0
78FAF0F0
B5E1F0F0
B9FBE0F0
78BFE1F0
3D16E7D0
2F41FF80
0BFD6900
01BD0000
ENDCHAR
STARTCHAR A
ENCODING 65
SWIDTH 765 0
DWIDTH 12 0
BBX 12 12 0 0
BITMAP
001800
007E00
00FF00
01FF80
02FFC0
07FBE0
0BD3F0
1FFFF8
2FFFFC
7FAABD
BD007F
7C002E
ENDCHAR
STARTCHAR B
ENCODING 66
SWIDTH 646 0
DWIDTH 10 0
BBX 10 12 0 0
BITMAP
2AA900
7FFF80
7FFFD0
7E07E0
7D1BD0
7D7FC0
7D7FD0
7D03E0
7D03F0
7FFFE0
7FFFD0
3FFE40
ENDCHAR
STARTCHAR C
ENCODING 67
SWIDTH 679 0
DWIDTH 11 0
BBX 11 12 0 0
BITMAP
006A40
07FFF4
1FFFF4
3F91A0
7E0000
BD0000
BD0000
7E0000
3F4050
2FFBF4
0BFFF4
01BF90
ENDCHAR
STARTCHAR D
ENCODING 68
SWIDTH 704 0
DWIDTH 11 0
BBX 11 12 0 0
BITMAP
2AA800
7FFF80
7FFFE0
7E1BF4
7D02F8
7D00F8
7D00F8
7D01F8
7D07F4
7FFFE0
7FFF80
3FF900
ENDCHAR
STARTCHAR E
ENCODING 69
SWIDTH 638 0
DWIDTH 10 0
BBX 10 12 0 0
BITMAP
2AAA90
7FFFE0
7FFFE0
7E0000
7E5400
7FFF00
7FFF00
7EA900
7D0000
7FAA90
7FFFE0
3FFFE0
ENDCHAR
STARTCHAR F
ENCODING 70
SWIDTH 637 0
DWIDTH 10 0
BBX 10 12 0 0
BITMAP
2AAA90
7FFFE0
7FFFE0
7E0000
7E5400
7FFF00
7FFF00
7EA900
7D0000
7D0000
7D0000
3D0000
ENDCHAR
STARTCHAR G
ENCODING 71
SWIDTH 714 0
DWIDTH 11 0
BBX 11 12 0 0
BITMAP
01BE80
07FFF4
1FFFF4
3F8090
7E0000
BD1FF8
BD1FF8
7E05F8
3F40F8
2FFBF8
0BFFF4
01FF90
ENDCHAR
STARTCHAR H
ENCODING 72
SWIDTH 699 0
DWIDTH 11 0
BBX 11 12 0 0
BITMAP
2800A4
7D01F8
7D01F8
7D01F8
7D01F8
7FFFF8
7FFFF8
7E56F8
7D01F8
7D01F8
7D01F8
3D00F4
ENDCHAR
STARTCHAR I
ENCODING 73
SWIDTH 257 0
DWIDTH 4 0
BBX 4 12 0 0
BITMAP
28
7D
7D
7D
7D
7D
7D
7D
7D
7D
7D
3D
ENDCHAR
STARTCHAR J
ENCODING 74
SWIDTH 549 0
DWIDTH 9 0
BBX 8 12 0 0
BITMAP
001A
002F
002F
002F
002F
002F
002F
002F
243F
BEFE
7FFD
1FE4
ENDCHAR
STARTCHAR K
ENCODING 75
SWIDTH 639 0
DWIDTH 10 0
BBX 10 12 0 0
BITMAP
280280
7D0BE0
7D2FD0
7D7F40
7EFD00
7FF400
7FF000
7FFC00
7DBF00
7D2FC0
7D0BE0
3D03D0
ENDCHAR
STARTCHAR L
ENCODING 76
SWIDTH 587 0
DWIDTH 9 0
BBX 9 12 0 0
BITMAP
280000
7D0000
7D0000
7D0000
7D0000
7D0000
7D0000
7D0000
7D0000
7E5540
7FFFC0
3FFF80
ENDCHAR
STARTCHAR M
ENCODING 77
SWIDTH 870 0
DWIDTH 14 0
BBX 14 12 0 0
BITMAP
28000680
7F000FD0
7F802FD0
7FD0BFD0
7FF5FFD0
7EFFFBD0
7DBFDBD0
7D2F8BD0
7D0E0BD0
7D000BD0
7D000BD0
7D0007C0
ENDCHAR
STARTCHAR N
ENCODING 78
SWIDTH 720 0
DWIDTH 12 0
BBX 11 12 0 0
BITMAP
290064
7F00FC
7F80FC
7FD0FC
7FF4FC
7EFCFC
7DBEFC
7D3FFC
7D1FFC
7D07FC
7D02FC
7D00B8
ENDCHAR
STARTCHAR O
ENCODING 79
SWIDTH 775 0
DWIDTH 12 0
BBX 12 12 0 0
BITMAP
00AE40
07FFE0
1FFFF8
3F81FD
7E007E
BD003F
BD003F
7E003F
3F40BE
2FEBFC
0BFFF4
01FF80
ENDCHAR
STARTCHAR P
ENCODING 80
SWIDTH 632 0
DWIDTH 10 0
BBX 10 12 0 0
BITMAP
2AA900
7FFF40
7FFFD0
7E0BE0
7D03E0
7E0BE0
7FFFD0
7FFF40
7FA900
7D0000
7D0000
3D0000
ENDCHAR
STARTCHAR Q
ENCODING 81
SWIDTH 830 0
DWIDTH 13 0
BBX 13 12 0 0
BITMAP
00AE4000
07FFE000
1FFFF800
3F81FD00
7E007E00
BD003F00
BD003F00
7E003E00
3F40BE00
2FEBFF40
0BFFFFC0
01FF9B40
ENDCHAR
STARTCHAR R
ENCODING 82
SWIDTH 631 0
DWIDTH 10 0
BBX 10 12 0 0
BITMAP
2AA900
7FFF40
7FFFD0
7E0BE0
7D03E0
7E0BE0
7FFFD0
7FFF80
7FAFC0
7D0BD0
7D07E0
3D02D0
ENDCHAR
STARTCHAR S
ENCODING 83
SWIDTH 583 0
DWIDTH 9 0
BBX 9 12 0 0
BITMAP
06E800
2FFF00
7FBF00
7E0900
7F4000
2FFD00
0BFF40
006F80
380FC0
BFAF80
3FFF40
0BF900
ENDCHAR
STARTCHAR T
ENCODING 84
SWIDTH 731 0
DWIDTH 12 0
BBX 12 12 0 0
BITMAP
6AAAA9
BFFFFD
6ABEA8
00BD00
00BD00
00BD00
00BD00
00BD00
00BD00
00BD00
00BD00
007C00
ENDCHAR
STARTCHAR U
ENCODING 85
SWIDTH 726 0
DWIDTH 12 0
BBX 11 12 0 0
BITMAP
280064
7D00FC
7D00FC
7D00FC
7D00FC
7D00FC
7E00FC
7E00FC
3F42F8
2FEBF4
0FFFE0
02FF40
ENDCHAR
STARTCHAR V
ENCODING 86
SWIDTH 783 0
DWIDTH 13 0
BBX 13 12 0 0
BITMAP
28001900
BD002F40
7E007F00
3F00BD00
1F80FC00
0FC2F400
07E3F000
03FBD000
01FFC000
00FF4000
007F0000
002D0000
ENDCHAR
STARTCHAR W
ENCODING 87
SWIDTH 999 0
DWIDTH 16 0
BBX 16 12 0 0
BITMAP
68028029
BD07D07E
7E0BE0BD
3F0FF0FC
2F1FF5F8
1F6FFAF4
0FFEBFF0
0BFD7FE0
07FC3FD0
03F82FC0
02F41F80
01E00B40
ENDCHAR
STARTCHAR X
ENCODING 88
SWIDTH 741 0
DWIDTH 12 0
BBX 12 12 0 0
BITMAP
380028
BE00BE
7F82FC
1FDBF4
07FFD0
01FF40
01FF40
07FFD0
1FEBF0
3F82FC
BE00FE
78003C
ENDCHAR
STARTCHAR Y
ENCODING 89
SWIDTH 686 0
DWIDTH 11 0
BBX 11 12 0 0
BITMAP
2800A0
BD01F8
7F03F4
2F8BE0
0FEFC0
07FF40
02FE00
00FC00
00FC00
00FC00
00FC00
00B800
ENDCHAR
STARTCHAR Z
ENCODING 90
SWIDTH 643 0
DWIDTH 10 0
BBX 10 12 0 0
BITMAP
6AAA80
BFFFE0
7FFFD0
002F80
00BF00
01FD00
03F800
0BE000
1FC000
3FEA90
BFFFF0
7FFFE0
ENDCHAR
STARTCHAR bracketleft
ENCODING 91
SWIDTH 348 0
DWIDTH 6 0
BBX 6 17 0 -4
BITMAP
1540
7FD0
7FD0
7D00
7D00
7D00
7D00
7D00
7D00
7D00
7D00
7D00
7D00
7D00
7E80
7FD0
2A80
ENDCHAR
STARTCHAR backslash
ENCODING 92
SWIDTH 528 0
DWIDTH 8 0
BBX 8 14 0 -1
BITMAP
1400
BC00
7D00
3F00
2F40
0FC0
0BD0
03F0
02F4
00F8
00BD
007E
002F
001A
ENDCHAR
STARTCHAR bracketright
ENCODING 93
SWIDTH 348 0
DWIDTH 6 0
BBX 5 17 0 -4
BITMAP
1500
BFC0
BFC0
0BC0
0BC0
0BC0
0BC0
0BC0
0BC0
0BC0
0BC0
0BC0
0BC0
0BC0
6FC0
BFC0
6A40
ENDCHAR
STARTCHAR asciicircum
ENCODING 94
SWIDTH 526 0
DWIDTH 8 0
BBX 8 5 0 4
BITMAP
0180
07E0
1FF8
7E7E
281D
ENDCHAR
STARTCHAR underscore
ENCODING 95
SWIDTH 826 0
DWIDTH 13 0
BBX 13 3 0 -4
BITMAP
6AAAAA40
BFFFFFC0
6AAAAA40
ENDCHAR
STARTCHAR grave
ENCODING 96
SWIDTH 482 0
DWIDTH 8 0
BBX 6 4 1 9
BITMAP
1000
7E40
7FD0
0680
ENDCHAR
STARTCHAR a
ENCODING 97
SWIDTH 596 0
DWIDTH 10 0
BBX 9 9 0 0
BITMAP
014540
0FFFC0
3FFFC0
7F6FC0
BD0FC0
BD1FC0
7FFFC0
2FFFC0
07EB80
ENDCHAR
STARTCHAR b
ENCODING 98
SWIDTH 592 0
DWIDTH 9 0
BBX 9 13 0 0
BITMAP
140000
7D0000
7D0000
7D0000
7D5000
7FFD00
7FFF40
7F6FC0
7E0BC0
7E0FC0
7FFF80
7FFF00
7DB800
ENDCHAR
STARTCHAR c
ENCODING 99
SWIDTH 517 0
DWIDTH 8 0
BBX 8 9 0 0
BITMAP
0190
0FFD
3FFE
7F6D
BD00
BE04
7FFD
2FFE
07F8
ENDCHAR
STARTCHAR d
ENCODING 100
SWIDTH 598 0
DWIDTH 10 0
BBX 9 13 0 0
BITMAP
000100
000BC0
000FC0
000FC0
014FC0
0BFFC0
2FFFC0
7F6FC0
7D0FC0
7E1FC0
3FFFC0
2FFFC0
07EB80
ENDCHAR
STARTCHAR e
ENCODING 101
SWIDTH 573 0
DWIDTH 9 0
BBX 9 10 0 -1
BITMAP
01A400
1FFE00
3FFF40
7E0F80
BFAF80
7FAA00
7F5600
2FFF40
0BFE00
001000
ENDCHAR
STARTCHAR f
ENCODING 102
SWIDTH 450 0
DWIDTH 7 0
BBX 7 13 0 0
BITMAP
0050
07F4
0FF4
1F90
2F94
BFFC
BFFC
2F94
1F80
1F80
1F80
1F80
0F40
ENDCHAR
STARTCHAR g
ENCODING 103
SWIDTH 585 0
DWIDTH 9 0
BBX 9 13 0 -4
BITMAP
014500
1FFF80
3FFF80
7E6F80
BD1F80
7E1F80
3FFF80
1FFF80
069F80
091F80
2FFF40
1FFD00
019000
ENDCHAR
STARTCHAR h
ENCODING 104
SWIDTH 605 0
DWIDTH 10 0
BBX 9 13 0 0
BITMAP
140000
7D0000
7D0000
7D0000
7D5400
7EFE00
7FFF40
7F6FC0
7D0BC0
7D0BC0
7D0BC0
7D0BC0
7D0B80
ENDCHAR
STARTCHAR i
ENCODING 105
SWIDTH 255 0
DWIDTH 4 0
BBX 4 13 0 0
BITMAP
14
7D
7D
14
14
7D
7D
7D
7D
7D
7D
7D
7D
ENDCHAR
STARTCHAR j
ENCODING 106
SWIDTH 252 0
DWIDTH 4 0
BBX 6 17 -2 -4
BITMAP
0140
07D0
07D0
0140
0140
07D0
07D0
07D0
07D0
07D0
07D0
07D0
07D0
1BD0
FFC0
FF00
6400
ENDCHAR
STARTCHAR k
ENCODING 107
SWIDTH 536 0
DWIDTH 9 0
BBX 9 13 0 0
BITMAP
140000
7D0000
7D0000
7D0000
7D0000
7D2D00
7EBE00
7FFD00
7FF000
7FF400
7EFE00
7D7F40
7D1E00
ENDCHAR
STARTCHAR l
ENCODING 108
SWIDTH 327 0
DWIDTH 5 0
BBX 5 13 0 0
BITMAP
1400
7D00
7D00
7D00
7D00
7D00
7D00
7D00
7D00
7D00
7F80
3FC0
1F80
ENDCHAR
STARTCHAR m
ENCODING 109
SWIDTH 851 0
DWIDTH 14 0
BBX 13 9 0 0
BITMAP
14501400
7EFDFF00
7FFFFF80
7F7FAFC0
7D2F4FC0
7D2F4BC0
7D2F4BC0
7D2F4BC0
7D1F0B80
ENDCHAR
STARTCHAR n
ENCODING 110
SWIDTH 606 0
DWIDTH 10 0
BBX 9 9 0 0
BITMAP
145400
7EFE00
7FFF40
7F6FC0
7D0BC0
7D0BC0
7D0BC0
7D0BC0
7D0780
ENDCHAR
STARTCHAR o
ENCODING 111
SWIDTH 600 0
DWIDTH 10 0
BBX 10 9 0 0
BITMAP
01A400
1FFE00
3FFF80
7E5FC0
BD0BD0
7D0FC0
7FBF80
2FFF40
07F900
ENDCHAR
STARTCHAR p
ENCODING 112
SWIDTH 582 0
DWIDTH 9 0
BBX 9 13 0 -4
BITMAP
145000
7FFD00
7FFF40
7F6F80
7D0FC0
7E1F80
7FFF40
7FFE00
7EA400
7D0000
7D0000
7D0000
280000
ENDCHAR
STARTCHAR q
ENCODING 113
SWIDTH 582 0
DWIDTH 9 0
BBX 9 13 0 -4
BITMAP
014500
1FFF80
3FFF80
7E6F80
BD1F80
7E1F80
3FFF80
1FFF80
069F80
000F80
000F80
000F80
000640
ENDCHAR
STARTCHAR r
ENCODING 114
SWIDTH 457 0
DWIDTH 7 0
BBX 7 9 0 0
BITMAP
1454
7FFC
7FFC
7E54
7D00
7D00
7D00
7D00
7D00
ENDCHAR
STARTCHAR s
ENCODING 115
SWIDTH 489 0
DWIDTH 8 0
BBX 8 9 0 0
BITMAP
0690
2FFC
7EB8
7E40
3FF8
0BFD
29BD
BFFD
2FF4
ENDCHAR
STARTCHAR t
ENCODING 116
SWIDTH 449 0
DWIDTH 7 0
BBX 7 12 0 0
BITMAP
0500
1F40
1F40
2F94
BFFC
BFFC
2F94
1F80
1F80
1FE0
0FF4
06F4
ENDCHAR
STARTCHAR u
ENCODING 117
SWIDTH 606 0
DWIDTH 10 0
BBX 9 9 0 0
BITMAP
140140
7D0BC0
7D0BC0
7D0BC0
7D0BC0
7E0FC0
3FFFC0
1FFFC0
07EB80
ENDCHAR
STARTCHAR v
ENCODING 118
SWIDTH 638 0
DWIDTH 10 0
BBX 10 9 0 0
BITMAP
140140
BC03E0
BE07E0
3F4FD0
1F9F80
0BFF00
07FD00
02FC00
00F400
ENDCHAR
STARTCHAR w
ENCODING 119
SWIDTH 793 0
DWIDTH 13 0
BBX 13 9 0 0
BITMAP
14040500
BC3E1F40
BD7F2F40
3EBFBE00
2FFFFD00
1FFFFC00
0FF7F800
07E3F400
03C1E000
ENDCHAR
STARTCHAR x
ENCODING 120
SWIDTH 567 0
DWIDTH 9 0
BBX 9 9 0 0
BITMAP
140500
BD1F80
BF7F80
2FFE00
0BF800
1FFD00
7FFF40
BE2F80
780B40
ENDCHAR
STARTCHAR y
ENCODING 121
SWIDTH 604 0
DWIDTH 10 0
BBX 10 13 0 -4
BITMAP
140140
BC07D0
7E0FC0
3F5F80
1FEF40
0BFE00
03FD00
01FC00
02F400
03F000
07E000
0BC000
024000
ENDCHAR
STARTCHAR z
ENCODING 122
SWIDTH 586 0
DWIDTH 9 0
BBX 9 9 0 0
BITMAP
155500
7FFF80
7FFF80
15FE00
02F800
0FE000
3FEA80
BFFFC0
7FFF80
ENDCHAR
STARTCHAR braceleft
ENCODING 123
SWIDTH 381 0
DWIDTH 6 0
BBX 6 17 0 -4
BITMAP
0050
07E0
0BE0
0F40
0F40
0F40
0F40
6F00
BE00
7F00
0F40
0F40
0F40
0F40
0B90
07E0
0190
ENDCHAR
STARTCHAR bar
ENCODING 124
SWIDTH 217 0
DWIDTH 3 0
BBX 3 17 0 -4
BITMAP
10
78
78
78
78
78
78
78
78
78
78
78
78
78
78
78
24
ENDCHAR
STARTCHAR braceright
ENCODING 125
SWIDTH 381 0
DWIDTH 6 0
BBX 6 17 0 -4
BITMAP
1000
BD00
BE00
1F00
1F00
1F00
1F00
0F90
0BE0
0FE0
1F00
1F00
1F00
1F00
6F00
BD00
6400
ENDCHAR
STARTCHAR asciitilde
ENCODING 126
SWIDTH 651 0
DWIDTH 10 0
BBX 8 4 1 2
BITMAP
2F5E
FFFF
FBFD
1050
ENDCHAR
STARTCHAR exclamdown
ENCODING 161
SWIDTH 268 0
DWIDTH 4 0
BBX 4 12 0 -4
BITMAP
7D
7E
29
00
2D
7E
7E
7E
7E
7E
7E
29
ENDCHAR
STARTCHAR cent
ENCODING 162
SWIDTH 434 0
DWIDTH 7 0
BBX 7 13 0 -2
BITMAP
0240
0380
0380
0BE0
3FF4
7D60
B800
7EA0
3FF4
0BE0
0380
0380
0100
ENDCHAR
STARTCHAR sterling
ENCODING 163
SWIDTH 675 0
DWIDTH 11 0
BBX 11 12 0 0
BITMAP
006A40
03FFE0
0BFFF4
0F80A0
1F4000
7FE800
BFFC00
1FD400
0BC000
0FEAA0
2FFFF8
1FFFF4
ENDCHAR
STARTCHAR currency
ENCODING 164
SWIDTH 677 0
DWIDTH 11 0
BBX 11 13 0 0
BITMAP
100000
7800B4
7FABF0
2FFFD0
2FABE0
3D02F0
7D01F0
7D01F0
3E02F0
2FFFD0
2FFFE0
7E56F4
640060
ENDCHAR
STARTCHAR yen
ENCODING 165
SWIDTH 677 0
DWIDTH 11 0
BBX 11 12 0 0
BITMAP
2800A0
BD01F4
7F03F4
2F8BE0
0FEFC0
07FF40
0BFF80
0FFFC0
00F800
0FFFC0
0AFE80
00B800
ENDCHAR
STARTCHAR brokenbar
ENCODING 166
SWIDTH 215 0
DWIDTH 3 0
BBX 3 17 0 -4
BITMAP
10
78
78
78
78
78
78
38
00
24
78
78
78
78
78
78
24
ENDCHAR
STARTCHAR section
ENCODING 167
SWIDTH 560 0
DWIDTH 9 0
BBX 9 17 0 -4
BITMAP
014000
1FFD00
3FFF00
7E6D00
7E0000
3FE400
2FFE00
7FBF40
7D1F80
7FAF40
2FFF00
06FF40
101F80
7D1F40
7FFF40
2FFD00
059000
ENDCHAR
STARTCHAR dieresis
ENCODING 168
SWIDTH 489 0
DWIDTH 8 0
BBX 8 4 0 9
BITMAP
1414
7D3E
7D3E
1415
ENDCHAR
STARTCHAR copyright
ENCODING 169
SWIDTH 711 0
DWIDTH 11 0
BBX 11 11 0 1
BITMAP
06FE40
1E96E0
38A974
72FE28
B7801C
A7401C
73D928
75FE38
2D14B4
0BFFD0
015500
ENDCHAR
STARTCHAR ordfeminine
ENCODING 170
SWIDTH 445 0
DWIDTH 7 0
BBX 7 7 0 5
BITMAP
0510
2FF4
7EF4
B4B4
7DF4
2FF4
0664
ENDCHAR
STARTCHAR guillemotleft
ENCODING 171
SWIDTH 668 0
DWIDTH 11 0
BBX 11 9 0 0
BITMAP
004010
02D1F4
0BD7F4
2F5FD0
BD3F40
7E2F80
2F8BE0
0BE2F4
01C0A0
ENDCHAR
STARTCHAR logicalnot
ENCODING 172
SWIDTH 526 0
DWIDTH 8 0
BBX 9 5 0 2
BITMAP
BFFF00
BFFF40
6AAF40
000F40
000B00
ENDCHAR
STARTCHAR registered
ENCODING 174
SWIDTH 711 0
DWIDTH 11 0
BBX 11 11 0 1
BITMAP
06FE40
1E96E0
39F974
71EF28
B1DB1C
A1FF1C
71EF28
75D778
2D01B4
0BFFD0
015500
ENDCHAR
STARTCHAR degree
ENCODING 176
SWIDTH 407 0
DWIDTH 7 0
BBX 6 7 0 6
BITMAP
0100
2FD0
7EF0
B4B0
79F0
2FD0
0500
ENDCHAR
STARTCHAR plusminus
ENCODING 177
SWIDTH 505 0
DWIDTH 8 0
BBX 8 9 0 0
BITMAP
0280
03D0
7FFD
BFFE
1BE5
03C0
0550
7FFD
7FFD
ENDCHAR
STARTCHAR twosuperior
ENCODING 178
SWIDTH 455 0
DWIDTH 7 0
BBX 7 9 0 3
BITMAP
1B90
3FF4
7DF8
B8B8
16F4
1FE0
7FE8
BFFC
1AA4
ENDCHAR
STARTCHAR threesuperior
ENCODING 179
SWIDTH 457 0
DWIDTH 7 0
BBX 7 9 0 3
BITMAP
1BD0
3FF4
3DB8
06F4
07F4
74B8
7EB8
3FF4
0680
ENDCHAR
STARTCHAR acute
ENCODING 180
SWIDTH 605 0
DWIDTH 10 0
BBX 5 4 2 9
BITMAP
0140
2FC0
BFC0
6900
ENDCHAR
STARTCHAR mu
ENCODING 181
SWIDTH 601 0
DWIDTH 10 0
BBX 9 13 0 -4
BITMAP
140140
7D0BC0
7D0BC0
7D0BC0
7D0BC0
7E0FC0
7FFFC0
7FFFC0
7EA780
7D0000
7D0000
7D0000
140000
ENDCHAR
STARTCHAR paragraph
ENCODING 182
SWIDTH 614 0
DWIDTH 10 0
BBX 9 14 0 -4
BITMAP
1AAA80
7FFFC0
7FE7C0
7FE7C0
7FE7C0
1BE7C0
02E7C0
02E7C0
02E7C0
02E7C0
02E7C0
02E7C0
02D7C0
019240
ENDCHAR
STARTCHAR periodcentered
ENCODING 183
SWIDTH 237 0
DWIDTH 4 0
BBX 4 4 0 3
BITMAP
14
BD
BD
24
ENDCHAR
STARTCHAR cedilla
ENCODING 184
SWIDTH 559 0
DWIDTH 9 0
BBX 3 4 3 -3
BITMAP
50
F8
6C
F4
ENDCHAR
STARTCHAR onesuperior
ENCODING 185
SWIDTH 321 0
DWIDTH 5 0
BBX 5 9 0 3
BITMAP
0B40
2F40
BF80
7F80
0F80
0F80
0F80
0F40
0600
ENDCHAR
STARTCHAR ordmasculine
ENCODING 186
SWIDTH 439 0
DWIDTH 7 0
BBX 7 7 0 5
BITMAP
0100
2FE0
7EF4
B878
79B4
3FF0
0A80
ENDCHAR
STARTCHAR guillemotright
ENCODING 187
SWIDTH 669 0
DWIDTH 11 0
BBX 11 9 0 0
BITMAP
100400
B82E00
7E2F80
2F8BE0
0BE2F4
0BD7F4
3F5FD0
BD3F40
741D00
ENDCHAR
STARTCHAR onequarter
ENCODING 188
SWIDTH 786 0
DWIDTH 13 0
BBX 11 14 1 -1
BITMAP
040100
3C0740
FC0B00
BC1D00
2C2800
2C7400
2CA624
15DB78
038F78
075FB8
0E1FF8
1C0078
380034
100000
ENDCHAR
STARTCHAR onehalf
ENCODING 189
SWIDTH 804 0
DWIDTH 13 0
BBX 11 14 1 -1
BITMAP
040100
3C0740
FC0B00
BC1D00
2C2800
2C7400
2CA290
15DFF4
039E78
0749B4
0E07E0
1C1FF8
381FF8
100000
ENDCHAR
STARTCHAR threequarters
ENCODING 190
SWIDTH 842 0
DWIDTH 13 0
BBX 12 14 1 -1
BITMAP
040040
7F41D0
FB8280
1B8740
5B8E00
E7DD00
BFB999
1973DE
00E39E
02C7EE
0387FE
0B001E
0D001D
040000
ENDCHAR
STARTCHAR questiondown
ENCODING 191
SWIDTH 511 0
DWIDTH 8 0
BBX 8 13 0 -4
BITMAP
0140
07E0
07E0
0140
0040
07D0
1FD0
7F40
BC18
BD2F
7FFE
1FF8
0550
ENDCHAR
STARTCHAR Agrave
ENCODING 192
SWIDTH 765 0
DWIDTH 12 0
BBX 12 16 0 0
BITMAP
004000
01F900
02FF00
001A00
001800
007E00
00FF00
01FF80
02FFC0
07FBE0
0BD3F0
1FFFF8
2FFFFC
7FAABD
BD007F
7C002E
ENDCHAR
STARTCHAR Aacute
ENCODING 193
SWIDTH 765 0
DWIDTH 12 0
BBX 12 16 0 0
BITMAP
000140
006FC0
00BF80
006400
001800
007E00
00FF00
01FF80
02FFC0
07FBE0
0BD3F0
1FFFF8
2FFFFC
7FAABD
BD007F
7C002E
ENDCHAR
STARTCHAR Acircumflex
ENCODING 194
SWIDTH 765 0
DWIDTH 12 0
BBX 12 16 0 0
BITMAP
001500
02FFC0
03FFC0
004140
001800
007E00
00FF00
01FF80
02FFC0
07FBE0
0BD3F0
1FFFF8
2FFFFC
7FAABD
BD007F
7C002E
ENDCHAR
STARTCHAR Atilde
ENCODING 195
SWIDTH 765 0
DWIDTH 12 0
BBX 12 16 0 0
BITMAP
006040
02FFD0
03EF80
000500
001800
007E00
00FF00
01FF80
02FFC0
07FBE0
0BD3F0
1FFFF8
2FFFFC
7FAABD
BD007F
7C002E
ENDCHAR
STARTCHAR Adieresis
ENCODING 196
SWIDTH 765 0
DWIDTH 12 0
BBX 12 16 0 0
BITMAP
014190
07D3E0
07D3E0
014040
001800
007E00
00FF00
01FF80
02FFC0
07FBE0
0BD3F0
1FFFF8
2FFFFC
7FAABD
BD007F
7C002E
ENDCHAR
STARTCHAR Aring
ENCODING 197
SWIDTH 765 0
DWIDTH 12 0
BBX 12 15 0 0
BITMAP
002900
00AB00
00D300
00BA00
007E00
00FF00
01FF80
02FFC0
07FBE0
0BD3F0
1FFFF8
2FFFFC
7FAABD
BD007F
7C002E
ENDCHAR
STARTCHAR AE
ENCODING 198
SWIDTH 1148 0
DWIDTH 18 0
BBX 18 12 0 0
BITMAP
00006AAA90
0001FFFFF0
0003FFFFE0
000FFE0000
002FFE5500
00BF7FFF00
02FD7FFF00
0BFEBFA900
1FFFFE0000
7FAABFFFE0
FD003FFFF0
78002FFFE0
ENDCHAR
STARTCHAR Ccedilla
ENCODING 199
SWIDTH 679 0
DWIDTH 11 0
BBX 11 15 0 -3
BITMAP
006E40
07FFF4
1FFFF4
3F81A0
7E0000
BD0000
BD0000
7E0000
3F4050
2FFBF4
0BFFF4
01BF90
003E00
001B00
003D00
ENDCHAR
STARTCHAR Egrave
ENCODING 200
SWIDTH 638 0
DWIDTH 10 0
BBX 10 16 0 0
BITMAP
004000
02F900
03FE00
006900
2AAA90
7FFFE0
7FFFE0
7E0000
7E5400
7FFF00
7FFF00
7EA900
7D0000
7FAA90
7FFFE0
3FFFE0
ENDCHAR
STARTCHAR Eacute
ENCODING 201
SWIDTH 638 0
DWIDTH 10 0
BBX 10 16 0 0
BITMAP
000500
01FE00
02FE00
019000
2AAA90
7FFFE0
7FFFE0
7E0000
7E5400
7FFF00
7FFF00
7EA900
7D0000
7FAA90
7FFFE0
3FFFE0
ENDCHAR
STARTCHAR Ecircumflex
ENCODING 202
SWIDTH 638 0
DWIDTH 10 0
BBX 10 16 0 0
BITMAP
005400
0BFF00
0FFF40
010500
2AAA90
7FFFE0
7FFFE0
7E0000
7E5400
7FFF00
7FFF00
7EA900
7D0000
7FAA90
7FFFE0
3FFFE0
ENDCHAR
STARTCHAR Edieresis
ENCODING 203
SWIDTH 638 0
DWIDTH 10 0
BBX 10 16 0 0
BITMAP
060640
1F8F80
1F4F80
050100
2AAA90
7FFFE0
7FFFE0
7E0000
7E5400
7FFF00
7FFF00
7EA900
7D0000
7FAA90
7FFFE0
3FFFE0
ENDCHAR
STARTCHAR Igrave
ENCODING 204
SWIDTH 267 0
DWIDTH 4 0
BBX 5 16 -1 0
BITMAP
1000
BE40
BFC0
0640
0A40
1F80
1F80
1F80
1F80
1F80
1F80
1F80
1F80
1F80
1F80
0F40
ENDCHAR
STARTCHAR Iacute
ENCODING 205
SWIDTH 269 0
DWIDTH 4 0
BBX 5 16 0 0
BITMAP
0140
6FC0
BF80
2400
2900
7E00
7E00
7E00
7E00
7E00
7E00
7E00
7E00
7E00
7E00
3D00
ENDCHAR
STARTCHAR Icircumflex
ENCODING 206
SWIDTH 270 0
DWIDTH 4 0
BBX 7 16 -1 0
BITMAP
0540
BFF0
FFF4
1050
0A40
1F80
1F80
1F80
1F80
1F80
1F80
1F80
1F80
1F80
1F80
0F40
ENDCHAR
STARTCHAR Idieresis
ENCODING 207
SWIDTH 268 0
DWIDTH 4 0
BBX 8 16 -2 0
BITMAP
1819
7D3E
7D3E
1404
0290
07E0
07E0
07E0
07E0
07E0
07E0
07E0
07E0
07E0
07E0
03D0
ENDCHAR
STARTCHAR Eth
ENCODING 208
SWIDTH 775 0
DWIDTH 12 0
BBX 12 12 0 0
BITMAP
0AAA40
1FFFE0
1FFFF8
1F85FD
1F807E
7FE03F
BFF03F
1F807E
1F81FD
1FFFFC
1FFFF0
0FFE40
ENDCHAR
STARTCHAR Ntilde
ENCODING 209
SWIDTH 720 0
DWIDTH 12 0
BBX 11 16 0 0
BITMAP
009140
03FFC0
07BF40
010400
290064
7F00FC
7F80FC
7FD0FC
7FF4FC
7EFCFC
7DBEFC
7D3FFC
7D1FFC
7D07FC
7D02FC
7D00B8
ENDCHAR
STARTCHAR Ograve
ENCODING 210
SWIDTH 775 0
DWIDTH 12 0
BBX 12 16 0 0
BITMAP
004000
01F900
01FF00
001A00
00AE40
07FFE0
1FFFF8
3F81FD
7E007E
BD003F
BD003F
7E003F
3F40BE
2FEBFC
0BFFF4
01FF80
ENDCHAR
STARTCHAR Oacute
ENCODING 211
SWIDTH 775 0
DWIDTH 12 0
BBX 12 16 0 0
BITMAP
000140
007F80
00BF80
006400
00AE40
07FFE0
1FFFF8
3F81FD
7E007E
BD003F
BD003F
7E003F
3F40BE
2FEBFC
0BFFF4
01FF80
ENDCHAR
STARTCHAR Ocircumflex
ENCODING 212
SWIDTH 775 0
DWIDTH 12 0
BBX 12 16 0 0
BITMAP
001900
02FFD0
02FBD0
004140
00AE40
07FFE0
1FFFF8
3F81FD
7E007E
BD003F
BD003F
7E003F
3F40BE
2FEBFC
0BFFF4
01FF80
ENDCHAR
STARTCHAR Otilde
ENCODING 213
SWIDTH 775 0
DWIDTH 12 0
BBX 12 16 0 0
BITMAP
006440
01FFE0
02EFD0
004100
00AE40
07FFE0
1FFFF8
3F81FD
7E007E
BD003F
BD003F
7E003F
3F40BE
2FEBFC
0BFFF4
01FF80
ENDCHAR
STARTCHAR Odieresis
ENCODING 214
SWIDTH 775 0
DWIDTH 12 0
BBX 12 16 0 0
BITMAP
014190
07D3E0
07D3E0
014040
00AE40
07FFE0
1FFFF8
3F81FD
7E007E
BD003F
BD003F
7E003F
3F40BE
2FEBFC
0BFFF4
01FF80
ENDCHAR
STARTCHAR multiply
ENCODING 215
SWIDTH 521 0
DWIDTH 8 0
BBX 8 8 0 0
BITMAP
281D
BE7F
2FFD
0FF4
1FF8
7FBE
7D2E
1404
ENDCHAR
STARTCHAR Oslash
ENCODING 216
SWIDTH 775 0
DWIDTH 12 0
BBX 12 14 0 -1
BITMAP
000050
00AAF4
07FFF0
1FFFF8
3F8FFD
7E1FBE
BD2F3F
BD7E3F
7EBC3F
3FF8BE
2FFBFC
0BFFF4
0BFF80
068000
ENDCHAR
STARTCHAR Ugrave
ENCODING 217
SWIDTH 726 0
DWIDTH 12 0
BBX 11 16 0 0
BITMAP
010000
07E400
07FD00
006800
280064
7D00FC
7D00FC
7D00FC
7D00FC
7D00FC
7E00FC
7E00FC
3F42F8
2FEBF4
0FFFE0
02FF40
ENDCHAR
STARTCHAR Uacute
ENCODING 218
SWIDTH 726 0
DWIDTH 12 0
BBX 11 16 0 0
BITMAP
000140
007F80
00BF80
006400
280064
7D00FC
7D00FC
7D00FC
7D00FC
7D00FC
7E00FC
7E00FC
3F42F8
2FEBF4
0FFFE0
02FF40
ENDCHAR
STARTCHAR Ucircumflex
ENCODING 219
SWIDTH 726 0
DWIDTH 12 0
BBX 11 16 0 0
BITMAP
001400
02FF80
03FFC0
014140
280064
7D00FC
7D00FC
7D00FC
7D00FC
7D00FC
7E00FC
7E00FC
3F42F8
2FEBF4
0FFFE0
02FF40
ENDCHAR
STARTCHAR Udieresis
ENCODING 220
SWIDTH 726 0
DWIDTH 12 0
BBX 11 16 0 0
BITMAP
064140
0BC7D0
0BC7D0
010140
280064
7D00FC
7D00FC
7D00FC
7D00FC
7D00FC
7E00FC
7E00FC
3F42F8
2FEBF4
0FFFE0
02FF40
ENDCHAR
STARTCHAR Yacute
ENCODING 221
SWIDTH 686 0
DWIDTH 11 0
BBX 11 16 0 0
BITMAP
000500
01BF00
01FE00
009000
2800A0
BD01F8
7F03F4
2F8BE0
0FEFC0
07FF40
02FE00
00FC00
00FC00
00FC00
00FC00
00B800
ENDCHAR
STARTCHAR Thorn
ENCODING 222
SWIDTH 634 0
DWIDTH 10 0
BBX 10 12 0 0
BITMAP
280000
7E0000
7FFE00
7FFF80
7FAFD0
7D07E0
7D07E0
7E5FD0
7FFFC0
7FFE00
7E5400
3D0000
ENDCHAR
STARTCHAR germandbls
ENCODING 223
SWIDTH 633 0
DWIDTH 10 0
BBX 10 13 0 -1
BITMAP
0BF900
3FFF00
7F6F40
7D2F00
7D7D00
7DBC00
7D7F40
7D1FD0
7D03E0
7D67E0
7DBFD0
7DBF80
140000
ENDCHAR
STARTCHAR agrave
ENCODING 224
SWIDTH 596 0
DWIDTH 10 0
BBX 9 13 0 0
BITMAP
010000
07E400
07FD00
006800
014540
0FFFC0
3FFFC0
7F6FC0
BD0FC0
BD1FC0
7FFFC0
2FFFC0
07EB80
ENDCHAR
STARTCHAR aacute
ENCODING 225
SWIDTH 596 0
DWIDTH 10 0
BBX 9 13 0 0
BITMAP
000400
01BD00
03FD00
029000
014540
0FFFC0
3FFFC0
7F6FC0
BD0FC0
BD1FC0
7FFFC0
2FFFC0
07EB80
ENDCHAR
STARTCHAR acircumflex
ENCODING 226
SWIDTH 596 0
DWIDTH 10 0
BBX 9 13 0 0
BITMAP
005000
07FE00
0FFF40
064600
014540
0FFFC0
3FFFC0
7F6FC0
BD0FC0
BD1FC0
7FFFC0
2FFFC0
07EB80
ENDCHAR
STARTCHAR atilde
ENCODING 227
SWIDTH 596 0
DWIDTH 10 0
BBX 9 13 0 0
BITMAP
014100
07FB40
0FFF00
051400
014540
0FFFC0
3FFFC0
7F6FC0
BD0FC0
BD1FC0
7FFFC0
2FFFC0
07EB80
ENDCHAR
STARTCHAR adieresis
ENCODING 228
SWIDTH 596 0
DWIDTH 10 0
BBX 9 13 0 0
BITMAP
050500
1F4F80
1F4F80
050540
014540
0FFFC0
3FFFC0
7F6FC0
BD0FC0
BD1FC0
7FFFC0
2FFFC0
07EB80
ENDCHAR
STARTCHAR aring
ENCODING 229
SWIDTH 596 0
DWIDTH 10 0
BBX 9 12 0 0
BITMAP
00B400
018800
00E800
015540
0FFFC0
3FFFC0
7F6FC0
BD0FC0
BD1FC0
7FFFC0
2FFFC0
07EB80
ENDCHAR
STARTCHAR ae
ENCODING 230
SWIDTH 910 0
DWIDTH 15 0
BBX 14 9 0 0
BITMAP
05901500
2FFEFFD0
7FFFFFE0
2D2FD2F0
055FEBF0
7FFFEA90
BC1FE590
7EFFFFE0
2FE5BF90
ENDCHAR
STARTCHAR ccedilla
ENCODING 231
SWIDTH 524 0
DWIDTH 8 0
BBX 8 12 0 -3
BITMAP
01A4
1FFE
3FFF
7F6D
BD00
7E04
7FFE
2FFF
07F9
02F0
01B4
02E0
ENDCHAR
STARTCHAR egrave
ENCODING 232
SWIDTH 573 0
DWIDTH 9 0
BBX 9 14 0 -1
BITMAP
010000
0BE400
0BFC00
006400
01A400
1FFE00
3FFF40
7E0F80
BFAF80
7FAA00
7F5600
2FFF40
0BFE00
001000
ENDCHAR
STARTCHAR eacute
ENCODING 233
SWIDTH 573 0
DWIDTH 9 0
BBX 9 14 0 -1
BITMAP
000400
01BD00
07FD00
029000
01A400
1FFE00
3FFF40
7E0F80
BFAF80
7FAA00
7F5600
2FFF40
0BFE00
001000
ENDCHAR
STARTCHAR ecircumflex
ENCODING 234
SWIDTH 573 0
DWIDTH 9 0
BBX 9 14 0 -1
BITMAP
005000
0BFD00
1FFF00
091900
01A400
1FFE00
3FFF40
7E0F80
BFAF80
7FAA00
7F5600
2FFF40
0BFE00
001000
ENDCHAR
STARTCHAR edieresis
ENCODING 235
SWIDTH 573 0
DWIDTH 9 0
BBX 9 14 0 -1
BITMAP
040500
3E2F00
3F2F00
150500
01A400
1FFE00
3FFF40
7E0F80
BFAF80
7FAA00
7F5600
2FFF40
0BFE00
001000
ENDCHAR
STARTCHAR igrave
ENCODING 236
SWIDTH 255 0
DWIDTH 4 0
BBX 5 13 -1 0
BITMAP
1000
BE40
BFC0
0640
0500
1F40
1F40
1F40
1F40
1F40
1F40
1F40
1F40
ENDCHAR
STARTCHAR iacute
ENCODING 237
SWIDTH 255 0
DWIDTH 4 0
BBX 5 13 0 0
BITMAP
0100
6F80
BF80
6900
1400
7D00
7D00
7D00
7D00
7D00
7D00
7D00
7D00
ENDCHAR
STARTCHAR icircumflex
ENCODING 238
SWIDTH 255 0
DWIDTH 4 0
BBX 6 13 -1 0
BITMAP
0500
BFE0
FFF0
6090
0500
1F40
1F40
1F40
1F40
1F40
1F40
1F40
1F40
ENDCHAR
STARTCHAR idieresis
ENCODING 239
SWIDTH 255 0
DWIDTH 4 0
BBX 8 13 -2 0
BITMAP
1414
7D3E
7D7E
1414
0140
07D0
07D0
07D0
07D0
07D0
07D0
07D0
07D0
ENDCHAR
STARTCHAR eth
ENCODING 240
SWIDTH 585 0
DWIDTH 9 0
BBX 9 13 0 0
BITMAP
012400
07F000
07F800
07BD00
015F00
0BFF40
2FFF80
7F6FC0
BD0FC0
BD0FC0
7FBF80
2FFF00
07F800
ENDCHAR
STARTCHAR ntilde
ENCODING 241
SWIDTH 606 0
DWIDTH 10 0
BBX 9 13 0 0
BITMAP
014000
0BEF00
1FFE00
041400
145400
7EFE00
7FFF40
7F6FC0
7D0BC0
7D0BC0
7D0BC0
7D0BC0
7D0780
ENDCHAR
STARTCHAR ograve
ENCODING 242
SWIDTH 600 0
DWIDTH 10 0
BBX 10 13 0 0
BITMAP
010000
07E400
07FC00
006800
01A400
1FFE00
3FFF80
7E5FC0
BD0BD0
7D0FC0
7FBF80
2FFF40
07F900
ENDCHAR
STARTCHAR oacute
ENCODING 243
SWIDTH 600 0
DWIDTH 10 0
BBX 10 13 0 0
BITMAP
000400
01BD00
03FD00
029000
01A400
1FFE00
3FFF80
7E5FC0
BD0BD0
7D0FC0
7FBF80
2FFF40
07F900
ENDCHAR
STARTCHAR ocircumflex
ENCODING 244
SWIDTH 600 0
DWIDTH 10 0
BBX 10 13 0 0
BITMAP
005000
0BFD00
1FFF00
051900
01A400
1FFE00
3FFF80
7E5FC0
BD0BD0
7D0FC0
7FBF80
2FFF40
07F900
ENDCHAR
STARTCHAR otilde
ENCODING 245
SWIDTH 600 0
DWIDTH 10 0
BBX 10 13 0 0
BITMAP
014400
0BEF00
1FFE00
041400
01A400
1FFE00
3FFF80
7E5FC0
BD0BD0
7D0FC0
7FBF80
2FFF40
07F900
ENDCHAR
STARTCHAR odieresis
ENCODING 246
SWIDTH 600 0
DWIDTH 10 0
BBX 10 13 0 0
BITMAP
040500
2F1F40
2F2F40
150500
01A400
1FFE00
3FFF80
7E5FC0
BD0BD0
7D0FC0
7FBF80
2FFF40
07F900
ENDCHAR
STARTCHAR divide
ENCODING 247
SWIDTH 503 0
DWIDTH 8 0
BBX 8 9 0 0
BITMAP
0280
07D0
0280
2AA9
BFFE
6AA9
0280
07D0
03C0
ENDCHAR
STARTCHAR oslash
ENCODING 248
SWIDTH 600 0
DWIDTH 10 0
BBX 10 14 0 -3
BITMAP
000A40
000F80
01AF40
1FFF00
3FFF80
7E5FC0
BD0BD0
BD0FC0
7FBF80
2FFF40
1FF900
3F0000
3E0000
040000
ENDCHAR
STARTCHAR ugrave
ENCODING 249
SWIDTH 606 0
DWIDTH 10 0
BBX 9 13 0 0
BITMAP
010000
07E400
07FC00
006800
140140
7D0BC0
7D0BC0
7D0BC0
7D0BC0
7E0FC0
3FFFC0
1FFFC0
07EB80
ENDCHAR
STARTCHAR uacute
ENCODING 250
SWIDTH 606 0
DWIDTH 10 0
BBX 9 13 0 0
BITMAP
000400
01BE00
03FE00
019000
140140
7D0BC0
7D0BC0
7D0BC0
7D0BC0
7E0FC0
3FFFC0
1FFFC0
07EB80
ENDCHAR
STARTCHAR ucircumflex
ENCODING 251
SWIDTH 606 0
DWIDTH 10 0
BBX 9 13 0 0
BITMAP
005000
0BFE00
1FFF00
050900
140140
7D0BC0
7D0BC0
7D0BC0
7D0BC0
7E0FC0
3FFFC0
1FFFC0
07EB80
ENDCHAR
STARTCHAR udieresis
ENCODING 252
SWIDTH 606 0
DWIDTH 10 0
BBX 9 13 0 0
BITMAP
050500
2F1F40
2F1F40
150500
140140
7D0BC0
7D0BC0
7D0BC0
7D0BC0
7E0FC0
3FFFC0
1FFFC0
07EB80
ENDCHAR
STARTCHAR yacute
ENCODING 253
SWIDTH 604 0
DWIDTH 10 0
BBX 10 17 0 -4
BITMAP
000400
01BE00
03FE00
029000
140140
BC07D0
7E0FC0
3F5F80
1FEF40
0BFE00
03FD00
01FC00
02F400
03F000
07E000
0BC000
024000
ENDCHAR
STARTCHAR thorn
ENCODING 254
SWIDTH 580 0
DWIDTH 9 0
BBX 9 17 0 -4
BITMAP
240000
7D0000
7D0000
7D0000
7D5000
7FFD00
7FFF40
7F6F80
7D0FC0
7E1F80
7FFF40
7FFE00
7EF800
7D0000
7D0000
7D0000
240000
ENDCHAR
STARTCHAR ydieresis
ENCODING 255
SWIDTH 604 0
DWIDTH 10 0
BBX 10 17 0 -4
BITMAP
050500
2F5F80
2F5F80
050500
140140
BC07D0
7E0FC0
3F5F80
1FEF40
0BFE00
03FD00
01FC00
02F400
03F000
07E000
0BC000
024000
ENDCHAR
STARTCHAR dotlessi
ENCODING 305
SWIDTH 255 0
DWIDTH 4 0
BBX 4 9 0 0
BITMAP
14
7D
7D
7D
7D
7D
7D
7D
7D
ENDCHAR
STARTCHAR Lslash
ENCODING 321
SWIDTH 687 0
DWIDTH 11 0
BBX 11 12 0 0
BITMAP
068000
0BC000
0BC000
0BC000
0BEC00
2FFD00
BFD000
2FC000
0BC000
0BD550
0BFFF8
07FFF4
ENDCHAR
STARTCHAR lslash
ENCODING 322
SWIDTH 468 0
DWIDTH 7 0
BBX 7 13 0 0
BITMAP
0100
0FC0
0FC0
0FC0
0FC0
0FEC
6FFC
BFD0
5FC0
0FC0
0BE0
0BF4
02F4
ENDCHAR
STARTCHAR OE
ENCODING 338
SWIDTH 1092 0
DWIDTH 17 0
BBX 17 12 0 0
BITMAP
006AAAAA80
07FFFFFFC0
1FFFFFFFC0
3F90F80000
7E00F95400
BD00FFFD00
BD00FFFD00
7E00FEA400
3F40F80000
2FFAFEAA80
0BFFFFFFC0
01BFFFFF80
ENDCHAR
STARTCHAR oe
ENCODING 339
SWIDTH 944 0
DWIDTH 15 0
BBX 15 9 0 0
BITMAP
01A41540
1FFEFFE0
3FFFFFF4
7E5FE1F8
BD0BFAF8
BD0FEAA0
7FBFF5A0
2FFFFFF4
07F9BFE0
ENDCHAR
STARTCHAR Scaron
ENCODING 352
SWIDTH 583 0
DWIDTH 9 0
BBX 9 16 0 0
BITMAP
051400
1FFE00
1BFD00
005000
06E800
2FFF00
7FBF00
7E0900
7F4000
2FFD00
0BFF40
006F80
380FC0
BFAF80
3FFF40
0BF900
ENDCHAR
STARTCHAR scaron
ENCODING 353
SWIDTH 489 0
DWIDTH 8 0
BBX 8 13 0 0
BITMAP
1010
7EF8
7FF8
0640
0690
2FFC
7EB8
7E40
3FF8
0BFD
29BD
BFFD
2FF4
ENDCHAR
STARTCHAR Ydieresis
ENCODING 376
SWIDTH 686 0
DWIDTH 11 0
BBX 11 16 0 0
BITMAP
064640
0F8BC0
0F8BC0
010100
2800A0
BD01F8
7F03F4
2F8BE0
0FEFC0
07FF40
02FE00
00FC00
00FC00
00FC00
00FC00
00B800
ENDCHAR
STARTCHAR Zcaron
ENCODING 381
SWIDTH 643 0
DWIDTH 10 0
BBX 10 16 0 0
BITMAP
050500
0FFF40
0BFE00
005000
6AAA80
BFFFE0
7FFFD0
002F80
00BF00
01FD00
03F800
0BE000
1FC000
3FEA90
BFFFF0
7FFFE0
ENDCHAR
STARTCHAR zcaron
ENCODING 382
SWIDTH 586 0
DWIDTH 9 0
BBX 9 13 0 0
BITMAP
040400
0FBE00
1FFE00
019000
155500
7FFF80
7FFF80
15FE00
02F800
0FE000
3FEA80
BFFFC0
7FFF80
ENDCHAR
STARTCHAR florin
ENCODING 402
SWIDTH 529 0
DWIDTH 8 0
BBX 9 16 0 -4
BITMAP
002A00
00FF40
02FE00
02F000
1FFF00
2FFF40
1FFA00
07E000
07D000
07D000
0BD000
0BC000
0BC000
BF8000
FF0000
640000
ENDCHAR
STARTCHAR circumflex
ENCODING 710
SWIDTH 603 0
DWIDTH 10 0
BBX 7 4 1 9
BITMAP
0140
2FF4
7FFC
1464
ENDCHAR
STARTCHAR caron
ENCODING 711
SWIDTH 600 0
DWIDTH 10 0
BBX 7 4 1 9
BITMAP
1010
7EF8
7FF8
0640
ENDCHAR
STARTCHAR dotaccent
ENCODING 729
SWIDTH 285 0
DWIDTH 5 0
BBX 3 3 1 11
BITMAP
B8
F8
A4
ENDCHAR
STARTCHAR ring
ENCODING 730
SWIDTH 378 0
DWIDTH 6 0
BBX 4 5 1 10
BITMAP
28
AB
C3
BE
14
ENDCHAR
STARTCHAR ogonek
ENCODING 731
SWIDTH 570 0
DWIDTH 9 0
BBX 3 4 3 -3
BITMAP
14
F8
E4
B8
ENDCHAR
STARTCHAR tilde
ENCODING 732
SWIDTH 584 0
DWIDTH 9 0
BBX 7 4 1 9
BITMAP
0410
7FB8
BFF4
1150
ENDCHAR
STARTCHAR endash
ENCODING 8211
SWIDTH 561 0
DWIDTH 9 0
BBX 9 3 0 3
BITMAP
6AAA40
BFFF80
7FFF40
ENDCHAR
STARTCHAR emdash
ENCODING 8212
SWIDTH 693 0
DWIDTH 11 0
BBX 11 3 0 3
BITMAP
6AAAA4
BFFFF8
7FFFF8
ENDCHAR
STARTCHAR quoteleft
ENCODING 8216
SWIDTH 237 0
DWIDTH 4 0
BBX 4 6 0 6
BITMAP
09
2C
74
BD
BD
68
ENDCHAR
STARTCHAR quoteright
ENCODING 8217
SWIDTH 237 0
DWIDTH 4 0
BBX 4 6 0 6
BITMAP
68
BD
7D
2C
78
60
ENDCHAR
STARTCHAR quotesinglbase
ENCODING 8218
SWIDTH 237 0
DWIDTH 4 0
BBX 4 6 0 -3
BITMAP
7D
BD
7D
2C
78
50
ENDCHAR
STARTCHAR quotedblleft
ENCODING 8220
SWIDTH 482 0
DWIDTH 8 0
BBX 8 6 0 6
BITMAP
0908
2C38
7474
BDBC
BDBD
6868
ENDCHAR
STARTCHAR quotedblright
ENCODING 8221
SWIDTH 482 0
DWIDTH 8 0
BBX 8 6 0 6
BITMAP
6868
BDBD
7DBD
2C2C
7878
6060
ENDCHAR
STARTCHAR quotedblbase
ENCODING 8222
SWIDTH 482 0
DWIDTH 8 0
BBX 8 6 0 -3
BITMAP
7D7C
BDBD
7D7D
2C2C
7874
5050
ENDCHAR
STARTCHAR dagger
ENCODING 8224
SWIDTH 527 0
DWIDTH 8 0
BBX 8 15 0 -3
BITMAP
02D0
07E0
07E0
17E0
BFFF
BFFF
17E5
07E0
07E0
07E0
07E0
07E0
07E0
07E0
03D0
ENDCHAR
STARTCHAR daggerdbl
ENCODING 8225
SWIDTH 527 0
DWIDTH 8 0
BBX 8 15 0 -3
BITMAP
02D0
07E0
07E0
17E0
BFFF
BFFF
17E5
07E0
17E4
BFFF
BFFF
17E4
07E0
07E0
03D0
ENDCHAR
STARTCHAR bullet
ENCODING 8226
SWIDTH 342 0
DWIDTH 5 0
BBX 5 6 0 2
BITMAP
0500
7F80
BFC0
BFC0
3F80
0400
ENDCHAR
STARTCHAR ellipsis
ENCODING 8230
SWIDTH 911 0
DWIDTH 15 0
BBX 14 3 0 0
BITMAP
7D0B42E0
BD1F82F0
7D0F82F0
ENDCHAR
STARTCHAR perthousand
ENCODING 8240
SWIDTH 1223 0
DWIDTH 20 0
BBX 19 14 0 -1
BITMAP
0000100000
0A80740000
3FE0B00000
79F1D00000
74B2800000
3EE7400000
1FDA000000
001D7E06E0
0039FF4FF8
0072D39D3C
00E2D39D3C
01C1FF8FF8
03807E07E0
0100000000
ENDCHAR
STARTCHAR guilsinglleft
ENCODING 8249
SWIDTH 383 0
DWIDTH 6 0
BBX 6 9 0 0
BITMAP
0040
03E0
0FE0
3F80
BE00
7F40
2FD0
07E0
01D0
ENDCHAR
STARTCHAR guilsinglright
ENCODING 8250
SWIDTH 383 0
DWIDTH 6 0
BBX 6 9 0 0
BITMAP
1000
7C00
BF00
2FC0
0BE0
1FE0
7F80
BE00
7800
ENDCHAR
STARTCHAR fraction
ENCODING 8260
SWIDTH 433 0
DWIDTH 7 0
BBX 8 14 0 -1
BITMAP
0001
0007
000E
001C
0038
00B0
00D0
02C0
0340
0B00
1D00
2C00
7400
1000
ENDCHAR
STARTCHAR Euro
ENCODING 8364
SWIDTH 612 0
DWIDTH 10 0
BBX 10 13 0 0
BITMAP
001540
01FFD0
07FFD0
0FE540
1FD500
BFFF40
6F9500
7FAA40
BFFF40
0F8000
0BFA80
07FFD0
00BFD0
ENDCHAR
STARTCHAR trademark
ENCODING 8482
SWIDTH 840 0
DWIDTH 13 0
BBX 13 6 0 4
BITMAP
BFF78780
6FA7DF80
0F07FF80
0F07FF80
0F07A780
0B074380
ENDCHAR
STARTCHAR minus
ENCODING 8722
SWIDTH 581 0
DWIDTH 9 0
BBX 9 3 0 3
BITMAP
6AAA40
BFFFC0
7FFF80
ENDCHAR
STARTCHAR f_f
ENCODING 64256
SWIDTH 803 0
DWIDTH 13 0
BBX 13 13 0 0
BITMAP
00501500
07F4BF00
0FF5FF00
1F92F900
2F96F500
BFFFFF80
BFFFFF80
2F96F500
1F82F400
1F82F400
1F82F400
1F82F000
0F41F000
ENDCHAR
STARTCHAR fi
ENCODING 64257
SWIDTH 709 0
DWIDTH 11 0
BBX 11 13 0 0
BITMAP
005050
07F4F8
0FF4F8
1F9050
2F9450
BFFCF8
BFFCF8
2F94F8
1F80F8
1F80F8
1F80F8
1F80F8
0F40B4
ENDCHAR
STARTCHAR fl
ENCODING 64258
SWIDTH 774 0
DWIDTH 12 0
BBX 12 13 0 0
BITMAP
005050
07F4F8
0FF5F8
1F91F8
2F95F8
BFFDF8
BFFDF8
2F95F8
1F81F8
1F81F8
1F80FE
1F80FF
0F407F
ENDCHAR
STARTCHAR f_f_i
ENCODING 64259
SWIDTH 1059 0
DWIDTH 17 0
BBX 17 13 0 0
BITMAP
0050150500
07F4BF1F40
0FF5FF1F40
1F92F90500
2F96F50500
BFFFFF9F40
BFFFFF9F40
2F96F51F40
1F82F41F40
1F82F41F40
1F82F41F40
1F82F01F40
0F41F01F00
ENDCHAR
STARTCHAR .notdef
ENCODING -1
SWIDTH 500 0
DWIDTH 8 0
BBX 1 1 0 0
BITMAP
00
ENDCHAR
STARTCHAR .null
ENCODING -1
SWIDTH 0 0
DWIDTH 0 0
BBX 1 1 0 0
BITMAP
00
ENDCHAR
STARTCHAR nonmarkingreturn
ENCODING -1
SWIDTH 333 0
DWIDTH 5 0
BBX 1 1 0 0
BITMAP
00
ENDCHAR
STARTCHAR f_t
ENCODING -1
SWIDTH 814 0
DWIDTH 13 0
BBX 13 13 0 0
BITMAP
00500000
07F45000
0FF5F400
1F91F400
2F96F900
BFFFFF80
BFFFFF80
2F96F900
1F81F400
1F81F400
1F81FE00
1F80FF40
0F402F00
ENDCHAR
STARTCHAR t_t
ENCODING -1
SWIDTH 794 0
DWIDTH 13 0
BBX 13 12 0 0
BITMAP
05004000
1F42F000
1F42F000
2F97F500
BFFFFF40
BFFFFF40
2F97F500
1F82F000
1F82F000
0FE2F900
0BF5FF00
02F46E00
ENDCHAR
STARTCHAR l_l
ENCODING -1
SWIDTH 626 0
DWIDTH 10 0
BBX 10 13 0 0
BITMAP
141400
7D3E00
7D3E00
7D3E00
7D3E00
7D3E00
7D3E00
7D3E00
7D3E00
7D3E00
7F7F90
3FAFE0
1B4BD0
ENDCHAR
STARTCHAR j_j
ENCODING -1
SWIDTH 521 0
DWIDTH 8 0
BBX 10 17 -2 -4
BITMAP
014040
07D3E0
07D3E0
014140
014140
07D3E0
07D3E0
07D3E0
07D3E0
07D3E0
07D3E0
07D3E0
07D3E0
0BD7E0
FFDFD0
FF6FC0
A41A00
ENDCHAR
ENDFONT
